<svg version="1.2" xmlns="http://www.w3.org/2000/svg" viewBox="0 0 567 567" width="567" height="567">
	<title>ibexblueskyico</title>
	<defs>
		<linearGradient id="g1" x2="1" gradientUnits="userSpaceOnUse" gradientTransform="matrix(0,-542.634,868.5,0,282.303,529.824)">
			<stop offset="0" stop-color="#5db0d8"/>
			<stop offset="1" stop-color="#477fb9"/>
		</linearGradient>
	</defs>
	<style>
		.s0 { fill: url(#g1) } 
		.s1 { fill: #0068a9 } 
	</style>
	<path fill-rule="evenodd" class="s0" d="m469.2 316q-1.5-1.5-3-2.9-1.6-1.3-3.4-2.5-1.7-1.2-3.5-2.2-1.8-1-3.7-1.8-2.1-0.9-4.2-1.6-2.1-0.7-4.3-1.1-2.2-0.4-4.4-0.6-2.3-0.3-4.5-0.2-2.2-0.1-4.5 0.1-2.3 0.3-4.5 0.7-2.2 0.4-4.4 1.1-2.1 0.7-4.2 1.6-1.9 0.8-3.7 1.8-1.9 1-3.6 2.3-1.7 1.2-3.2 2.5-1.6 1.4-3 3-1.4 1.6-2.7 3.3-1.3 1.7-2.4 3.5-1.1 1.8-2 3.7-0.9 1.9-1.7 3.9-0.8 2.2-1.4 4.4-0.6 2.1-1 4.4-0.4 2.2-0.6 4.5-0.2 2.3-0.2 4.5 0 2.4 0.2 4.7 0.2 2.4 0.6 4.7 0.4 2.3 1 4.5 0.6 2.3 1.4 4.5 1.5 3.9 3.7 7.5 2.2 3.6 5.1 6.6 3 3 6.5 5.3 3.4 2.4 7.3 3.9 2.1 0.9 4.2 1.5 2.1 0.7 4.3 1.1 2.2 0.4 4.4 0.6 2.3 0.2 4.5 0.2 2.2 0 4.4-0.2 2.2-0.2 4.4-0.7 2.2-0.4 4.3-1.1 2.2-0.6 4.2-1.5 1.9-0.9 3.8-1.9 1.8-1 3.5-2.2 1.7-1.2 3.3-2.5 1.6-1.4 3-2.9 1.5-1.5 2.8-3.2 1.2-1.6 2.3-3.4 1.2-1.8 2.1-3.7 0.9-1.9 1.6-3.9 0.8-2.1 1.4-4.3 0.5-2.2 0.9-4.5 0.4-2.2 0.6-4.5 0.2-2.3 0.2-4.6 0-2.3-0.2-4.6-0.2-2.3-0.6-4.5-0.4-2.3-0.9-4.5-0.6-2.3-1.4-4.4-0.7-2-1.6-4-0.9-1.9-2.1-3.7-1.1-1.8-2.4-3.5-1.3-1.7-2.7-3.2zm-27.2-64.5h-4.1c-6.5-31.9-22.6-61.1-46.2-83.6-23.6-22.4-53.5-37.1-85.7-42.1-32.2-4.9-65.2 0.2-94.4 14.6-29.3 14.4-53.4 37.4-69.1 65.9-31 1-60.3 14-81.7 36.3-21.4 22.4-33.2 52.2-32.8 83.2 0.4 30.9 12.9 60.4 34.8 82.2 22 21.8 51.6 34.2 82.5 34.4h296.7c25.3 0 49.6-10.1 67.6-28 17.9-17.9 27.9-42.2 27.9-67.6 0-25.3-10-49.6-27.9-67.5-18-17.9-42.3-28-67.6-28zm66.3 126.4q-1.3 3.2-3 6.4-1.6 3.1-3.6 6-1.9 3-4.2 5.7-2.2 2.7-4.8 5.2-2.5 2.5-5.3 4.7-2.8 2.2-5.8 4.1-3 1.9-6.2 3.6-3.1 1.6-6.4 2.9-3.6 1.4-7.3 2.5-3.8 1.1-7.6 1.8-3.8 0.7-7.6 1-3.9 0.4-7.7 0.4-3.9 0-7.7-0.3-3.8-0.3-7.6-0.9-3.8-0.7-7.5-1.6-3.8-1-7.4-2.3-3.3-1.2-6.5-2.7-3.2-1.6-6.2-3.5-3-1.9-5.8-4.1-2.7-2.2-5.2-4.8-2.6-2.6-4.9-5.5-2.3-3-4.3-6.1-1.9-3.2-3.5-6.5-1.6-3.4-2.9-6.9-1.4-4.2-2.5-8.6-1.1-4.4-1.9-8.8-0.7-4.4-1-8.9-0.3-4.5-0.2-9v-113.7q-0.2-1.5 0.1-3.1 0.2-1.6 0.8-3 0.6-1.5 1.5-2.8 0.9-1.3 2-2.4 1.4-0.9 2.9-1.7 1.5-0.7 3.1-1.1 1.6-0.5 3.2-0.7 1.7-0.2 3.3-0.1 1.2 0 2.4 0.1 1.1 0.1 2.3 0.2 1.1 0.2 2.2 0.4 1.2 0.3 2.3 0.6 4.2 1.2 5.6 1.8v79.9q2-2.3 4.2-4.5 2.2-2.2 4.6-4.1 2.4-1.9 5-3.5 2.6-1.7 5.4-3 3.3-1.6 6.7-2.8 3.5-1.3 7-2 3.6-0.8 7.3-1.2 3.6-0.4 7.3-0.3 3.6 0 7.2 0.4 3.6 0.3 7.2 1 3.5 0.7 7 1.8 3.5 1.1 6.8 2.5 3.2 1.3 6.2 2.9 3 1.6 5.9 3.6 2.8 1.9 5.5 4.1 2.6 2.2 5 4.7 2.4 2.5 4.6 5.2 2.2 2.8 4.1 5.7 1.9 3 3.5 6.1 1.6 3.1 2.8 6.3 1.5 3.5 2.5 7.2 1.1 3.6 1.8 7.4 0.7 3.7 1.1 7.5 0.3 3.7 0.3 7.5-0.1 3.8-0.5 7.5-0.4 3.8-1.2 7.4-0.7 3.7-1.9 7.3-1.1 3.6-2.5 7.1z"/>
	<path id="Path 0" class="s1" d="m173.5 205.4c-3.3 0.7-9.8 3.1-14.5 5.3-4.7 2.1-10.8 5.4-13.5 7.2-2.8 1.9-7.9 6.1-11.3 9.5-3.5 3.3-8.2 8.8-10.5 12.1-2.2 3.3-6.2 10.5-8.8 16-2.7 5.5-5.5 12.7-6.4 16-0.8 3.3-1.5 7-1.5 8.2 0 1.3 0.4 2.2 0.9 2 0.6-0.1 4.7-4.9 9.3-10.7 4.6-5.8 9.1-11.6 10-13 1-1.4 2-2.3 2.2-2 0.3 0.3 0.1 2.3-0.4 4.5-0.5 2.2-1 5.9-1 8.2 0 2.4 0.4 5.2 1 6.3 0.5 1.1 1.7 2 2.5 2 0.8 0 2.6-1.5 3.9-3.3 1.3-1.7 3.8-6.4 5.7-10.2 2.4-5 5.7-9.4 11.4-15.2 4.7-4.8 9.9-9 12.5-10.2 3.4-1.6 6.6-2.1 13-2.1 4.7 0 11.2 0.7 14.5 1.6 3.3 0.8 8.5 2.4 11.5 3.6 3 1.1 7.7 3.1 10.5 4.5 2.7 1.4 7.9 5.5 11.5 9.2 3.6 3.6 9.1 10.4 12.2 15.1 3.1 4.7 8.3 13.8 11.7 20.2l6.1 11.8c-21.1 32.2-29.8 45.8-33 51-3.1 5.2-8.7 15.3-12.3 22.5-3.6 7.1-8.6 17.3-11 22.5-2.4 5.2-5.9 12-7.9 15-1.9 3-5.6 7.6-8.2 10.2-2.5 2.7-8.7 7.5-13.6 10.8-5 3.3-9 6.2-9 6.5 0 0.3 28.3 0.5 63 0.5h63c-8.3-17.4-11.6-25-12.5-28-1-3-1.9-8.2-1.9-11.5 0-3.5 0.9-9.1 2.2-13.3 1.2-3.9 2.9-7.9 3.7-8.7 0.8-0.8 4.8-2.5 8.7-3.6 4-1.2 14.1-3.4 22.3-4.9 8.2-1.6 17.9-3.5 21.5-4.3 3.6-0.9 8.5-2.4 10.9-3.4 2.7-1.1 4.9-2.9 5.7-4.6 0.8-1.5 1.4-4.1 1.4-5.7 0-1.7-0.6-4.2-1.4-5.8-0.7-1.5-3.8-5.6-6.7-9.2-3-3.6-12.1-13.5-20.4-22-8.3-8.5-17.9-19.3-21.5-24-3.5-4.7-8.6-12.6-11.1-17.5-2.6-5-6.2-10.6-7.9-12.5-1.8-1.9-3.6-4.5-4.1-5.8-0.5-1.2-0.9-3.3-0.9-4.7 0-1.4-0.7-3.9-1.5-5.5-1.1-2.2-2.5-3.2-5.3-3.8-3.2-0.7-4-1.5-6.3-6.2-1.7-3.5-5.1-7.9-9.5-12-4.7-4.5-8.5-7.2-11.9-8.4-2.8-0.9-6.8-2.6-9-3.8-2.2-1.1-5.4-2.7-7-3.6-1.7-0.8-6.4-2.1-10.5-2.8-4.1-0.7-13.6-1.3-21-1.3-7.4 0-16.2 0.6-19.5 1.3z"/>
</svg>