<svg version="1.2" xmlns="http://www.w3.org/2000/svg" viewBox="0 0 1200 100" width="250" height="50">
	<title>ibex-logo</title>
	<style>
		.s0 { fill: #01afec }
		.s1 { fill: #0068a9 } 
	</style>
	<path id="Path 0" fill-rule="evenodd" class="s0" d="m700 0h61.8c33.9 0 61.7 0.4 61.7 1 0 0.6-2.9 8.2-6.6 17-3.6 8.8-7.1 16.8-7.7 17.8-0.7 1.3-8.2 1.7-58 1.7l-1.4 4.5c-0.8 2.5-1.4 4.7-1.4 4.9 0 0.2 11.3 0.4 25 0.4 19.2 0 25.1 0.4 25 1.7 0 0.9-3.1 8.9-13.4 33.7l-51.9 0.7-2.1 4.9c-1.1 2.7-2.1 5.2-2.1 5.5 0 0.4 12.9 0.7 28.6 0.7 21.9 0 28.4 0.4 28.4 1.8-0.1 0.9-3.4 9.2-14.5 35.1h-10.8c-5.9 0-34-0.2-62.3-0.4-33.1-0.2-51.4-0.8-51.4-1.7 0-0.8 10.7-27.2 23.8-58.8 13-31.5 25-60.3 26.5-63.9zm-175.7 0.5l49.8 0.5c36 0.4 52.7 1.1 59.9 2.5 5.6 1.1 11.8 2.9 14 4 2.1 1.1 5.7 3.9 7.9 6.4 3.1 3.2 4.4 6.1 4.8 10.9 0.4 4.9-0.3 8.3-3 14.1-2.1 4.6-6.3 10.1-10.3 13.7-4.1 3.6-10.1 7.1-23.4 11.8l7.5 3.6c4.2 2 8.9 5.4 10.5 7.5 2 2.8 2.8 6.1 2.8 11.2-0.1 5.1-1.1 8.9-3.7 13.4-1.9 3.4-6.3 8.7-9.6 11.6-3.4 2.9-9.9 7.1-14.5 9.3-4.6 2.2-13.3 5.4-19.5 7.1-10.5 3-14 3.2-68.5 3.6-45.1 0.3-57.3 0-57.4-1.3 0-1 11-28.4 24.5-60.9 13.5-32.5 25.3-61.3 26.3-64.1zm46.3 40.2c-1.6 4-2.9 7.8-2.9 8.4 0 0.5 3.9 1 8.7 1 6.2 0 10-0.8 13.2-2.8 2.5-1.5 5.1-4.2 5.8-5.9 1-2.5 0.7-3.6-1.7-5.6-2.2-1.8-5.4-2.5-11.6-2.4h-8.5zm-20 48c-2.1 5.2-3.8 10-3.8 10.8 0 0.9 3.9 1 11.1 0.3 6.1-0.6 13.2-1.9 15.7-2.9 2.5-1.1 5.6-3.1 7-4.5 1.4-1.5 2.3-4.2 2.1-6.1-0.3-2-1.9-4.2-3.9-5.2-1.9-1-8.2-1.8-13.9-1.8h-10.5zm440.2-109.5h32.5c27 0 32.4 0.3 32.1 1.9-0.1 1.1-24.1 19.6-53.1 41.2-29.1 21.6-53.1 39.3-53.3 39.4-0.2 0.1 7.5 15.3 17.1 33.6 9.5 18.4 17.3 34.2 17.3 35.1 0.1 1.4-8.2 1.7-75.2 1.1l-5.5-16.7c-3-9.2-5.8-17-6.1-17.4-0.4-0.4-16.2 11.9-35.1 27.2-19 15.3-36 28.9-38 30.2-3 2.1-7.7 2.4-37.9 2.4-29.2 0-34.3-0.3-34-2 0.2-1.1 26.9-22.1 59.4-46.7 32.5-24.5 59.6-45.4 60.2-46.3 0.7-1-5-13.2-14.2-30.9-8.4-16-14.7-29.6-14.1-30.2 0.6-0.6 17.6-0.9 74.1-0.4l4.1 13.9c2.2 7.7 4.2 14 4.3 14.1 0.2 0.1 15-11 32.9-24.7zm-521.2 20.9c18 0 32.9 0.5 33.2 1 0.2 0.6-11.7 30.3-53.4 131.1h-33.4c-21.3 0-33.3-0.5-33.3-1.4 0-0.7 11.4-29.1 25.5-62.9 14-33.9 26.2-63 27.1-64.7 1.7-3.1 1.9-3.1 34.3-3.1z"/>
    <path id="Path 1" class="s1" d="m150 -68c-3.3 0.7-9.8 3.1-14.5 5.3-4.7 2.1-10.8 5.4-13.5 7.2-2.8 1.9-7.9 6.1-11.3 9.5-3.5 3.3-8.2 8.8-10.5 12.1-2.2 3.3-6.2 10.5-8.8 16-2.7 5.5-5.5 12.7-6.4 16-0.8 3.3-1.5 7-1.5 8.2 0 1.3 0.4 2.2 0.9 2 0.6-0.1 4.7-4.9 9.3-10.7 4.6-5.8 9.1-11.6 10-13 1-1.4 2-2.3 2.2-2 0.3 0.3 0.1 2.3-0.4 4.5-0.5 2.2-1 5.9-1 8.2 0 2.4 0.4 5.2 1 6.3 0.5 1.1 1.7 2 2.5 2 0.8 0 2.6-1.5 3.9-3.3 1.3-1.7 3.8-6.4 5.7-10.2 2.4-5 5.7-9.4 11.4-15.2 4.7-4.8 9.9-9 12.5-10.2 3.4-1.6 6.6-2.1 13-2.1 4.7 0 11.2 0.7 14.5 1.6 3.3 0.8 8.5 2.4 11.5 3.6 3 1.1 7.7 3.1 10.5 4.5 2.7 1.4 7.9 5.5 11.5 9.2 3.6 3.6 9.1 10.4 12.2 15.1 3.1 4.7 8.3 13.8 11.7 20.2l6.1 11.8c-21.1 32.2-29.8 45.8-33 51-3.1 5.2-8.7 15.3-12.3 22.5-3.6 7.1-8.6 17.3-11 22.5-2.4 5.2-5.9 12-7.9 15-1.9 3-5.6 7.6-8.2 10.2-2.5 2.7-8.7 7.5-13.6 10.8-5 3.3-9 6.2-9 6.5 0 0.3 28.3 0.5 63 0.5h63c-8.3-17.4-11.6-25-12.5-28-1-3-1.9-8.2-1.9-11.5 0-3.5 0.9-9.1 2.2-13.3 1.2-3.9 2.9-7.9 3.7-8.7 0.8-0.8 4.8-2.5 8.7-3.6 4-1.2 14.1-3.4 22.3-4.9 8.2-1.6 17.9-3.5 21.5-4.3 3.6-0.9 8.5-2.4 10.9-3.4 2.7-1.1 4.9-2.9 5.7-4.6 0.8-1.5 1.4-4.1 1.4-5.7 0-1.7-0.6-4.2-1.4-5.8-0.7-1.5-3.8-5.6-6.7-9.2-3-3.6-12.1-13.5-20.4-22-8.3-8.5-17.9-19.3-21.5-24-3.5-4.7-8.6-12.6-11.1-17.5-2.6-5-6.2-10.6-7.9-12.5-1.8-1.9-3.6-4.5-4.1-5.8-0.5-1.2-0.9-3.3-0.9-4.7 0-1.4-0.7-3.9-1.5-5.5-1.1-2.2-2.5-3.2-5.3-3.8-3.2-0.7-4-1.5-6.3-6.2-1.7-3.5-5.1-7.9-9.5-12-4.7-4.5-8.5-7.2-11.9-8.4-2.8-0.9-6.8-2.6-9-3.8-2.2-1.1-5.4-2.7-7-3.6-1.7-0.8-6.4-2.1-10.5-2.8-4.1-0.7-13.6-1.3-21-1.3-7.4 0-16.2 0.6-19.5 1.3z"/>
</svg>
